<svg width="22" height="22" viewBox="0 0 22 22" fill="none" xmlns="http://www.w3.org/2000/svg">
<g clip-path="url(#clip0_188_2306)">
<path d="M10.8887 20.3027L6.38867 20.6927L6.77867 16.1927L16.1386 6.89271C16.2784 6.74985 16.4452 6.63633 16.6294 6.55883C16.8135 6.48132 17.0113 6.44141 17.2111 6.44141C17.4109 6.44141 17.6088 6.48132 17.793 6.55883C17.9772 6.63633 18.144 6.74985 18.2836 6.89271L20.1886 8.81271C20.3292 8.95217 20.4408 9.11807 20.517 9.30086C20.5932 9.48365 20.6323 9.6797 20.6323 9.87771C20.6323 10.0757 20.5932 10.2718 20.517 10.4546C20.4408 10.6374 20.3292 10.8033 20.1886 10.9427L10.8887 20.3027Z" stroke="#555555" stroke-width="1.5" stroke-linecap="round" stroke-linejoin="round"/>
<path d="M1.76198 6.45806C1.23559 6.36647 1.23559 5.61081 1.76198 5.51924C3.66903 5.18745 5.1858 3.73492 5.59974 1.84401L5.63146 1.69907C5.74534 1.17882 6.48611 1.17558 6.60454 1.69481L6.64306 1.86373C7.07232 3.74572 8.58951 5.18598 10.4913 5.51684C11.0203 5.60888 11.0203 6.3684 10.4913 6.46044C8.58951 6.7913 7.07232 8.23157 6.64306 10.1136L6.60454 10.2825C6.48611 10.8017 5.74534 10.7985 5.63146 10.2782L5.59974 10.1333C5.1858 8.24237 3.66903 6.78983 1.76198 6.45806Z" stroke="#555555" stroke-width="1.5" stroke-linecap="round" stroke-linejoin="round"/>
</g>
<defs>
<clipPath id="clip0_188_2306">
<rect width="21" height="21" fill="white" transform="translate(0.5 0.5)"/>
</clipPath>
</defs>
</svg>
