<svg width="20" height="20" viewBox="0 0 20 20" fill="none" xmlns="http://www.w3.org/2000/svg">
<rect x="0.25" y="0.25" width="19.5" height="19.5" rx="9.75" fill="#F44336"/>
<rect x="0.25" y="0.25" width="19.5" height="19.5" rx="9.75" stroke="#F44336" stroke-width="0.5"/>
<path d="M13.0763 6.64123C13.3692 6.93412 13.3692 7.40899 13.0763 7.70189L10.7782 9.99999L13.0763 12.2981C13.3692 12.591 13.3692 13.0658 13.0763 13.3587C12.7834 13.6516 12.3085 13.6516 12.0156 13.3587L9.71753 11.0606L7.41943 13.3587C7.12654 13.6516 6.65167 13.6516 6.35877 13.3587C6.06588 13.0658 6.06588 12.591 6.35877 12.2981L8.65687 9.99999L6.35877 7.70189C6.06588 7.40899 6.06588 6.93412 6.35877 6.64123C6.65167 6.34833 7.12654 6.34833 7.41943 6.64123L9.71753 8.93932L12.0156 6.64123C12.3085 6.34833 12.7834 6.34833 13.0763 6.64123Z" fill="white"/>
</svg>
