<svg width="18" height="18" viewBox="0 0 18 18" fill="none" xmlns="http://www.w3.org/2000/svg">
<path d="M1 1V16.6" stroke="#1A1A1A" stroke-width="1.2" stroke-linecap="round" stroke-linejoin="round"/>
<path d="M16.5761 14.392C16.5767 14.6079 16.5191 14.8199 16.4093 15.0058C16.2993 15.1917 16.1414 15.3445 15.9521 15.448C15.7697 15.5534 15.5628 15.6088 15.3521 15.6088C15.1415 15.6088 14.9346 15.5534 14.7521 15.448L6.1241 9.80807C5.95568 9.69929 5.8172 9.55003 5.72132 9.37395C5.62544 9.19787 5.5752 9.00057 5.5752 8.80007C5.5752 8.59957 5.62544 8.40227 5.72132 8.22619C5.8172 8.05011 5.95568 7.90086 6.1241 7.79207L14.7761 2.20007C14.9586 2.09475 15.1655 2.03931 15.3761 2.03931C15.5868 2.03931 15.7937 2.09475 15.9761 2.20007C16.1655 2.30369 16.3233 2.45647 16.4333 2.64232C16.5431 2.82817 16.6007 3.0402 16.6001 3.25607L16.5761 14.392Z" stroke="#1A1A1A" stroke-width="1.2" stroke-linecap="round" stroke-linejoin="round"/>
</svg>
