<svg width="18" height="18" viewBox="0 0 18 18" fill="none" xmlns="http://www.w3.org/2000/svg">
<path d="M16.6001 1V16.6" stroke="#1A1A1A" stroke-width="1.2" stroke-linecap="round" stroke-linejoin="round"/>
<path d="M1.024 14.392C1.02342 14.6079 1.08107 14.8199 1.19089 15.0058C1.30071 15.1917 1.45863 15.3445 1.648 15.448C1.83042 15.5534 2.03736 15.6088 2.248 15.6088C2.45865 15.6088 2.66558 15.5534 2.848 15.448L11.476 9.80807C11.6444 9.69929 11.7829 9.55003 11.8788 9.37395C11.9747 9.19787 12.0249 9.00057 12.0249 8.80007C12.0249 8.59957 11.9747 8.40227 11.8788 8.22619C11.7829 8.05011 11.6444 7.90086 11.476 7.79207L2.824 2.20007C2.64158 2.09475 2.43465 2.03931 2.224 2.03931C2.01336 2.03931 1.80642 2.09475 1.624 2.20007C1.43463 2.30369 1.27671 2.45647 1.16689 2.64232C1.05707 2.82817 0.999415 3.0402 1 3.25607L1.024 14.392Z" stroke="#1A1A1A" stroke-width="1.2" stroke-linecap="round" stroke-linejoin="round"/>
</svg>
