<svg width="18" height="18" viewBox="0 0 18 18" fill="none" xmlns="http://www.w3.org/2000/svg">
<g clip-path="url(#clip0_220_978)">
<path d="M15.8548 10.1954C15.5678 10.147 15.2725 10.1883 15.0092 10.3141V3.54514C15.0085 2.85194 14.735 2.18775 14.2492 1.69774C13.764 1.20765 13.105 0.932318 12.4184 0.93103H5.58151C4.89501 0.93232 4.23598 1.20767 3.75075 1.69774C3.26495 2.18783 2.99138 2.85201 2.99074 3.54514V10.3134C2.72738 10.1883 2.43207 10.147 2.14507 10.1947C1.44642 10.3308 0.944648 10.9524 0.954237 11.6708V15.6695C0.945288 16.3872 1.44642 17.0088 2.14507 17.1449C2.85394 17.2687 3.54174 16.8347 3.7418 16.137H14.2689C14.4242 16.6567 14.8531 17.0456 15.3817 17.1449C15.4591 17.1572 15.537 17.1636 15.6157 17.1642C15.9947 17.1649 16.3584 17.0134 16.6262 16.7432C16.8947 16.473 17.0449 16.1067 17.0456 15.7243V11.6708C17.0552 10.9531 16.5535 10.3308 15.8548 10.1954ZM5.58159 1.75639H12.4185C13.3971 1.75768 14.1897 2.55793 14.191 3.54519V15.3115H3.80909V3.54519C3.81036 2.55793 4.60298 1.75771 5.58159 1.75639ZM2.77605 16.1931C2.63862 16.3117 2.45517 16.362 2.27683 16.3304C1.97256 16.2621 1.761 15.9841 1.7725 15.6701V11.6707C1.76099 11.3567 1.97258 11.0788 2.27683 11.0104C2.31134 11.0046 2.3465 11.002 2.3823 11.002C2.52612 11.0014 2.66611 11.053 2.77604 11.1478C2.91219 11.2645 2.99081 11.436 2.99081 11.6159V15.7249C2.99081 15.9048 2.9122 16.0764 2.77605 16.1931ZM16.2268 15.7249L16.2274 15.7243C16.2268 15.9061 16.1469 16.0776 16.0095 16.1944C15.8714 16.3111 15.6899 16.3607 15.5128 16.3298C15.2092 16.2608 14.997 15.9835 15.0091 15.6695V11.6159C15.0098 11.4341 15.089 11.2619 15.2264 11.1452C15.3645 11.0285 15.546 10.9795 15.7231 11.0104C16.0274 11.0788 16.2389 11.3567 16.2274 11.6708L16.2268 15.7249Z" fill="#7C4DFF"/>
<path d="M6.52707 9.97436H11.472C12.2998 9.97307 12.9709 9.29663 12.9722 8.46092V4.49901C12.9709 3.66394 12.3004 2.98685 11.472 2.98621H6.52707C5.69866 2.98685 5.02813 3.66394 5.02686 4.49901V8.46092C5.02813 9.29663 5.6993 9.97307 6.52707 9.97436ZM5.84504 4.49901C5.84504 4.1192 6.15058 3.8116 6.52707 3.8116H11.472C11.6529 3.8116 11.8261 3.88383 11.954 4.0128C12.0818 4.14178 12.154 4.31651 12.154 4.49901V8.46092C12.1534 8.84073 11.8485 9.14897 11.472 9.14897H6.52707C6.15058 9.14897 5.84568 8.84073 5.84504 8.46092V4.49901Z" fill="#7C4DFF"/>
<path d="M8.99915 10.7683C8.24743 10.7683 7.56988 11.2249 7.28162 11.9258C6.99398 12.6261 7.15314 13.4328 7.68431 13.9687C8.21613 14.5052 9.01577 14.6657 9.70997 14.3755C10.4048 14.0847 10.8573 13.4012 10.8567 12.6429C10.8561 11.6079 10.0245 10.7695 8.99915 10.7683ZM8.99915 13.692C8.57855 13.692 8.19887 13.4367 8.03778 13.0446C7.8767 12.6525 7.96555 12.2012 8.26278 11.9007C8.56065 11.6008 9.0081 11.5105 9.39673 11.673C9.78537 11.8355 10.0385 12.2186 10.0385 12.6429C10.0385 13.2219 9.57315 13.6914 8.99915 13.692Z" fill="#7C4DFF"/>
<path d="M7.47491 6.02657C7.58293 6.02592 7.68649 5.98208 7.76318 5.90534C7.87696 5.78733 7.90956 5.61194 7.84628 5.4604C7.78236 5.30886 7.63534 5.21021 7.4717 5.21021C7.3087 5.21021 7.16105 5.30887 7.09776 5.4604C7.03384 5.61194 7.06644 5.78734 7.18022 5.90534C7.25884 5.98336 7.36496 6.02657 7.47491 6.02657Z" fill="#7C4DFF"/>
<path d="M10.5302 6.0269C10.637 6.0269 10.7392 5.98305 10.8134 5.90567C10.9726 5.74446 10.9726 5.48394 10.8134 5.32274C10.651 5.16862 10.3979 5.16862 10.2356 5.32274C10.1582 5.39948 10.1147 5.50459 10.1147 5.6142C10.1147 5.72383 10.1582 5.82894 10.2356 5.90567C10.3142 5.9837 10.4196 6.0269 10.5302 6.0269Z" fill="#7C4DFF"/>
<path d="M8.23575 7.76021H9.76344C9.98908 7.76021 10.1725 7.57578 10.1725 7.34751C10.1725 7.11988 9.98908 6.93481 9.76344 6.93481H8.23575C8.01011 6.93481 7.82666 7.11988 7.82666 7.34751C7.82666 7.57578 8.01011 7.76021 8.23575 7.76021Z" fill="#7C4DFF"/>
</g>
<defs>
<clipPath id="clip0_220_978">
<rect width="18" height="18" fill="white"/>
</clipPath>
</defs>
</svg>
